<?xml version="1.0" encoding="UTF-8"?>
<svg version="1.1" viewBox="0 0 2048 2048" width="2048" height="2048" xmlns="http://www.w3.org/2000/svg">
<path transform="translate(0)" d="m0 0h2048v2048h-2048z" fill="#F4F2EB"/>
<path transform="translate(1499,907)" d="m0 0h20l17 3 19 7 15 9 13 11 9 9 7 10 9 16 6 18 2 11v28l-4 18-6 16-9 15-13 15-12 10-15 9-11 5-19 5-8 1h-22l-16-3-17-6-16-9-11-9-10-10-10-14-9-17-5-15-2-11-1-17 2-19 5-17 8-16 9-13 9-10 14-11 15-9 16-6 13-3z" fill="#102329"/>
<path transform="translate(960,906)" d="m0 0 5 5 21 32 10 15 15 23 14 22 17 26 11 17 19 29 17 26 29 44 8 11 2 5h-59l-10-15-27-41-16-25-14-21-13-20-11-17-16-25-3 3-14 22-24 38-14 23-16 26-6 10h-230v-169h51l2 1 1 125h119l-1 20v20l7-11 12-19 13-21 12-19 15-24 14-22 11-18 9-14 14-22 13-20 11-17z" fill="#102329"/>
<path transform="translate(442,808)" d="m0 0h62l-3 5-11 12-7 8-9 10-7 8-12 14-9 10-9 11-11 12-9 11-12 13-9 11-10 11-9 11-12 13-7 8-9 10-5 6 4 7 10 12 10 13 14 18 10 13 12 16 12 15 7 9 12 16 5 7v1h-63l-12-16-14-19-14-18-8-11-11-14-7-9v87h-53v-210h52v48h2l2-4 12-13 9-11 13-14 9-11 11-12 9-11 11-12 7-8 12-14 14-15 7-8 9-10z" fill="#102329"/>
<path transform="translate(508,909)" d="m0 0h50l16 4 12 6 10 9 7 9 5 10 4 14 1 16-3 18-8 16-7 9-9 8-13 7 2 5 11 14 15 20 10 13 13 17 10 13v2h-61l-7-8-10-14-13-17-14-19-13-17-5-6v-11l2-16 5-15 2-2 31-2 8-4 4-5 2-5v-8l-4-8-7-4-4-1h-49v162h-52l-1-127 2-24 4-15 7-14 7-9 8-8 11-7 15-5z" fill="#102329"/>
<path transform="translate(1202,907)" d="m0 0h21l18 3 17 6 16 8 2 2v58l-6-2-8-6-15-9-13-5-8-2h-22l-14 4-11 6-10 9-7 10-5 12-1 4v19l4 13 5 9 9 10 8 6 13 6 14 3h11l15-3 13-5 12-7 10-8 3-3 3 1-1 60-19 9-20 6-11 2h-25l-16-3-15-5-19-10-11-9-5-4-7-8-9-13-8-16-5-17-2-12v-25l3-15 8-21 9-14 9-10 9-9 13-9 16-8 15-5z" fill="#102329"/>
<path transform="translate(1647,907)" d="m0 0 4 2 57 57v2l4 2 11 12 9 9 1-82h46v213l-5-2-80-80-1 1-1 26-3 14-5 12-7 11-10 9-10 6-6 2-4-1z" fill="#102329"/>
<path transform="translate(1315,909)" d="m0 0h51v213l-7-1-12-5-11-7-8-8-7-11-5-14-1-6z" fill="#102329"/>
<path transform="translate(1498,959)" d="m0 0h20l13 4 10 6 10 9 6 8 5 10 3 12v12l-4 16-6 11-11 12-13 8-13 4h-19l-12-4-11-6-11-10-8-12-4-12-1-5v-15l3-11 7-14 9-10 11-7 9-4z" fill="#F4F2EB"/>
<path transform="translate(657,909)" d="m0 0h181l-3 9-6 23-2 14h-91l-12-13-9-8-14-8-18-8-26-8z" fill="#102329"/>
<path transform="translate(736,990)" d="m0 0h81v46h-95v-10l3-16 4-12 5-7z" fill="#102329"/>
</svg>
